<svg width="131" height="31" viewBox="0 0 131 31" fill="none" xmlns="http://www.w3.org/2000/svg">
<path d="M0 0H125C128.314 0 131 2.68629 131 6V25C131 28.3137 128.314 31 125 31H0V0Z" fill="white"/>
<path d="M2.99991 4C2.99991 5.10457 2.99991 6 7.18832e-05 6C7.18832e-05 6 0 5.10457 0 4C0 2.89543 7.18832e-05 2 7.18832e-05 2C2.99991 2 2.99991 2.89543 2.99991 4Z" fill="#21C063"/>
<path d="M2.99991 16C2.99991 17.1046 2.99991 18 7.18832e-05 18C7.18832e-05 18 0 17.1046 0 16C0 14.8954 7.18832e-05 14 7.18832e-05 14C2.99991 14 2.99991 14.8954 2.99991 16Z" fill="#21C063"/>
<path d="M2.99991 10C2.99991 11.1046 2.99991 12 7.18832e-05 12C7.18832e-05 12 0 11.1046 0 10C0 8.89543 7.18832e-05 8 7.18832e-05 8C2.99991 8 2.99991 8.89543 2.99991 10Z" fill="#21C063"/>
<path d="M2.99991 22C2.99991 23.1046 2.99991 24 7.18832e-05 24C7.18832e-05 24 0 23.1046 0 22C0 20.8954 7.18832e-05 20 7.18832e-05 20C2.99991 20 2.99991 20.8954 2.99991 22Z" fill="#21C063"/>
<path d="M2.99991 28C2.99991 29.1046 2.99991 30 7.18832e-05 30C7.18832e-05 30 0 29.1046 0 28C0 26.8954 7.18832e-05 26 7.18832e-05 26C2.99991 26 2.99991 26.8954 2.99991 28Z" fill="#21C063"/>
</svg>
