<svg width="53" height="32" viewBox="0 0 53 32" fill="none" xmlns="http://www.w3.org/2000/svg">
<path fill-rule="evenodd" clip-rule="evenodd" d="M12.048 16.711L11.339 17.422C11.565 17.194 11.807 16.952 12.048 16.712V16.711ZM47.483 0C44.743 0 42.523 2.228 42.523 4.978C42.523 7.726 44.743 9.956 47.483 9.956C50.223 9.956 52.444 7.726 52.444 4.978C52.444 2.228 50.224 0 47.483 0ZM0.71304 11.543L0.93704 11.802C1.26104 12.177 1.91504 12.188 2.38704 11.813C2.85804 11.437 2.97604 10.801 2.65304 10.409C2.65204 10.405 2.65204 10.405 2.64804 10.404L1.88504 9.502C1.56104 9.131 0.91504 9.167 0.44904 9.572C-0.01896 9.972 -0.14196 10.583 0.17904 10.939L0.71304 11.543V11.543ZM9.49404 17.456C9.92904 16.874 10.698 15.848 11.339 14.998L8.78604 11.525C8.44504 11.048 7.74204 10.847 7.26804 11.282C6.80604 11.7 6.75604 12.327 7.07004 12.784L5.55804 10.626C5.22404 10.196 4.56604 10.209 4.09304 10.646C3.61704 11.074 3.50104 11.754 3.83104 12.166L6.53504 15.887C6.60004 16.277 6.45004 16.703 6.10004 16.961C5.64504 17.293 5.02704 17.234 4.67504 16.856L3.12504 14.846L2.64804 14.246C2.62604 14.222 2.60104 14.203 2.57604 14.178C2.23004 13.846 1.62204 13.855 1.17604 14.216C0.69104 14.592 0.56204 15.208 0.89104 15.597L1.96704 16.994C4.13004 18.642 6.02704 18.844 6.82604 18.844C7.31604 18.844 8.46304 18.844 9.49404 17.456V17.456ZM11.187 17.422L10.985 17.685L11.187 17.422ZM11.187 17.422L10.985 17.685L11.187 17.422ZM12.737 16L12.048 16.711L12.737 16" fill="#21C063"/>
<path fill-rule="evenodd" clip-rule="evenodd" d="M12.7371 16L12.0481 16.711L12.7371 16" fill="#21C063"/>
<path fill-rule="evenodd" clip-rule="evenodd" d="M23.007 18.3778V18.3758L22.848 18.0858V18.0838C21.622 15.8468 18.917 10.9028 18.5 10.1298C18.215 9.59978 18.101 9.59978 18.025 9.59978C17.775 9.59978 17.584 9.65578 17.413 9.72778C15.881 11.7278 14.05 14.1228 12.455 16.2328L12.454 16.2308C11.863 17.0088 11.212 17.8698 10.827 18.3858C10.301 19.0878 9.73695 19.5298 9.20395 19.8108C9.18095 19.8238 9.15695 19.8378 9.13395 19.8488C9.05195 19.8908 8.97395 19.9188 8.89595 19.9518L8.87295 19.9608C8.72595 20.0208 8.58595 20.0668 8.44995 20.1078L8.36895 20.1308C8.28895 20.1518 8.20895 20.1728 8.12795 20.1908C8.09895 20.1968 8.07295 20.2038 8.04495 20.2078C7.98395 20.2208 7.91995 20.2278 7.85695 20.2378C7.76295 20.2528 7.67195 20.2688 7.57895 20.2778C7.49895 20.2858 7.42095 20.2868 7.34195 20.2908C7.25695 20.2948 7.16995 20.3008 7.08595 20.3008C7.00095 20.3008 6.91595 20.2948 6.83195 20.2908C6.12895 20.2638 5.24795 20.1258 4.25195 19.7608C5.93395 21.9028 6.92195 23.2158 7.51195 24.0138C8.40795 25.2488 9.42995 26.2218 9.99895 26.5738C12.802 28.3608 15.825 26.8718 17.687 25.0098L23.387 19.0878L23.007 18.3778V18.3778ZM30.097 7.37478L28.777 5.10378C28.751 5.06378 28.723 5.03078 28.699 4.99378C28.612 4.86578 28.523 4.73878 28.429 4.62178C28.421 4.60978 28.414 4.59678 28.406 4.58678C28.184 4.39078 27.948 4.20678 27.69 4.04478C25.307 2.54478 22.229 3.10078 20.613 5.25278V5.24678L18.335 8.21678L18.072 8.56178C18.345 8.20378 18.664 8.30978 18.968 8.61678C19.145 8.80178 19.317 9.05778 19.476 9.32678C19.581 9.50378 19.681 9.68278 19.769 9.85778L19.862 10.0418C19.897 10.1168 19.932 10.1878 19.961 10.2558L20.111 10.5388C21.241 12.7518 24.181 17.9358 24.199 17.9708L24.201 17.9748L24.431 18.3858L25.433 20.1808L25.439 20.1928L25.422 20.2108C25.467 20.2808 25.516 20.3488 25.563 20.4168C26.042 21.0828 26.778 21.6888 28.205 21.6888C28.821 21.6888 30.259 21.6888 31.387 19.8798C32.338 18.3558 33.585 16.1558 34.372 14.7478L30.097 7.37478V7.37478Z" fill="#21C063"/>
<path fill-rule="evenodd" clip-rule="evenodd" d="M41.7732 10.311C40.0152 10.311 38.4632 11.127 37.4842 12.384C37.2412 12.682 37.0232 13.006 36.8422 13.36L36.3972 14.122L35.2412 16.106L32.6962 20.464L32.6042 20.612C32.2582 21.123 31.9112 21.525 31.5682 21.846C31.0092 22.343 30.4352 22.634 29.9102 22.799C29.2332 23.013 28.6412 23.023 28.2812 23.023C27.7712 23.023 27.3282 22.961 26.9312 22.858L27.8052 24.493L28.6522 26H28.6492C28.6842 26.058 28.7092 26.115 28.7432 26.175L29.0272 26.728C29.0672 26.815 29.0972 26.898 29.1322 26.983L29.7722 28.177C30.4242 29.44 31.2592 30.419 32.6342 31.19L32.6522 31.185C32.8052 31.279 32.9632 31.368 33.1262 31.448C35.7602 32.745 38.9902 31.678 40.3062 29.078L46.4262 18.07C46.4862 17.956 46.5322 17.837 46.5822 17.72C46.9282 17.037 47.1292 16.274 47.1292 15.464C47.1292 12.618 44.7322 10.311 41.7732 10.311" fill="#21C063"/>
</svg>
