<svg width="32" height="33" viewBox="0 0 32 33" fill="none" xmlns="http://www.w3.org/2000/svg">
<path d="M18.1875 21.75C19.125 21.75 19.95 21.2375 20.375 20.4625L24.85 12.35C25.3125 11.525 24.7125 10.5 23.7625 10.5H5.2625L4.0875 8H0V10.5H2.5L7 19.9875L5.3125 23.0375C4.4 24.7125 5.6 26.75 7.5 26.75H22.5V24.25H7.5L8.875 21.75H18.1875ZM6.45 13H21.6375L18.1875 19.25H9.4125L6.45 13ZM7.5 28C6.125 28 5.0125 29.125 5.0125 30.5C5.0125 31.875 6.125 33 7.5 33C8.875 33 10 31.875 10 30.5C10 29.125 8.875 28 7.5 28ZM20 28C18.625 28 17.5125 29.125 17.5125 30.5C17.5125 31.875 18.625 33 20 33C21.375 33 22.5 31.875 22.5 30.5C22.5 29.125 21.375 28 20 28Z" fill="#21C063"/>
<circle cx="25" cy="7" r="7" fill="#323232"/>
<path d="M24.936 11.12C23.872 11.12 23.076 10.824 22.548 10.232C22.028 9.64 21.744 8.864 21.696 7.904C21.688 7.688 21.684 7.32 21.684 6.8C21.684 6.272 21.688 5.896 21.696 5.672C21.736 4.728 22.024 3.96 22.56 3.368C23.096 2.776 23.888 2.48 24.936 2.48C25.992 2.48 26.788 2.776 27.324 3.368C27.86 3.96 28.144 4.728 28.176 5.672C28.192 5.896 28.2 6.272 28.2 6.8C28.2 7.32 28.192 7.688 28.176 7.904C28.136 8.864 27.852 9.64 27.324 10.232C26.804 10.824 26.008 11.12 24.936 11.12ZM24.936 9.74C25.44 9.74 25.816 9.576 26.064 9.248C26.312 8.912 26.444 8.444 26.46 7.844C26.476 7.38 26.484 7.028 26.484 6.788C26.484 6.524 26.476 6.176 26.46 5.744C26.444 5.152 26.312 4.688 26.064 4.352C25.816 4.016 25.44 3.848 24.936 3.848C24.44 3.848 24.064 4.016 23.808 4.352C23.56 4.688 23.428 5.152 23.412 5.744C23.404 5.96 23.4 6.308 23.4 6.788C23.4 7.26 23.404 7.612 23.412 7.844C23.428 8.444 23.56 8.912 23.808 9.248C24.064 9.576 24.44 9.74 24.936 9.74Z" fill="white"/>
</svg>
